<?xml version="1.0" encoding="UTF-8" standalone="no"?>
<!DOCTYPE svg PUBLIC "-//W3C//DTD SVG 1.1//EN"
 "http://www.w3.org/Graphics/SVG/1.1/DTD/svg11.dtd">
<!-- Generated by graphviz version 2.43.0 (0)
 -->
<!-- Title: G Pages: 1 -->
<svg width="9338pt" height="436pt"
 viewBox="0.00 0.00 9337.50 436.00" xmlns="http://www.w3.org/2000/svg" xmlns:xlink="http://www.w3.org/1999/xlink">
<g id="graph0" class="graph" transform="scale(1 1) rotate(0) translate(4 432)">
<title>G</title>
<polygon fill="white" stroke="transparent" points="-4,4 -4,-432 9333.5,-432 9333.5,4 -4,4"/>
<!-- root349 -->
<g id="node1" class="node">
<title>root349</title>
<polygon fill="none" stroke="black" points="4669.5,-428 4090.5,-428 4090.5,-392 4669.5,-392 4669.5,-428"/>
<text text-anchor="middle" x="4380" y="-406.3" font-family="Times,serif" font-size="14.00">74143a245459b3e83e94a170372f4d4e72cd904595090a6d500ed9de09c6232a</text>
</g>
<!-- left692 -->
<g id="node2" class="node">
<title>left692</title>
<polygon fill="none" stroke="black" points="3803,-356 3223,-356 3223,-320 3803,-320 3803,-356"/>
<text text-anchor="middle" x="3513" y="-334.3" font-family="Times,serif" font-size="14.00">d2e207b9ec4470b06221314926b4b2e1bba7cf87ed254944e45968ad496be978</text>
</g>
<!-- root349&#45;&gt;left692 -->
<g id="edge1" class="edge">
<title>root349&#45;&gt;left692</title>
<path fill="none" stroke="black" d="M4169.29,-391.99C4037.39,-381.34 3867.7,-367.64 3733.91,-356.84"/>
<polygon fill="black" stroke="black" points="3734.18,-353.35 3723.93,-356.03 3733.62,-360.32 3734.18,-353.35"/>
</g>
<!-- right692 -->
<g id="node17" class="node">
<title>right692</title>
<polygon fill="none" stroke="black" points="6113,-356 5555,-356 5555,-320 6113,-320 6113,-356"/>
<text text-anchor="middle" x="5834" y="-334.3" font-family="Times,serif" font-size="14.00">b50bebd8669f4f9dfe38628e129b37f86c6e57374c48cfc1a267acc8276a2a3a</text>
</g>
<!-- root349&#45;&gt;right692 -->
<g id="edge16" class="edge">
<title>root349&#45;&gt;right692</title>
<path fill="none" stroke="black" d="M4669.87,-395.04C4923.82,-382.82 5290.96,-365.14 5544.73,-352.93"/>
<polygon fill="black" stroke="black" points="5545.02,-356.42 5554.84,-352.44 5544.68,-349.42 5545.02,-356.42"/>
</g>
<!-- left955 -->
<g id="node3" class="node">
<title>left955</title>
<polygon fill="none" stroke="black" points="2025,-284 1465,-284 1465,-248 2025,-248 2025,-284"/>
<text text-anchor="middle" x="1745" y="-262.3" font-family="Times,serif" font-size="14.00">3f1a00e01d4595ff781c047df3e094ffd182314eccd31a23882a10575483666b</text>
</g>
<!-- left692&#45;&gt;left955 -->
<g id="edge2" class="edge">
<title>left692&#45;&gt;left955</title>
<path fill="none" stroke="black" d="M3222.54,-325.5C2894.35,-312.51 2363.32,-291.48 2035.24,-278.49"/>
<polygon fill="black" stroke="black" points="2035.23,-274.99 2025.1,-278.09 2034.96,-281.98 2035.23,-274.99"/>
</g>
<!-- right955 -->
<g id="node10" class="node">
<title>right955</title>
<polygon fill="none" stroke="black" points="3802.5,-284 3223.5,-284 3223.5,-248 3802.5,-248 3802.5,-284"/>
<text text-anchor="middle" x="3513" y="-262.3" font-family="Times,serif" font-size="14.00">17beac0d8ae183632b91793bd3e212986221f7c1d4583c530276468d2cb3812b</text>
</g>
<!-- left692&#45;&gt;right955 -->
<g id="edge9" class="edge">
<title>left692&#45;&gt;right955</title>
<path fill="none" stroke="black" d="M3513,-319.7C3513,-311.98 3513,-302.71 3513,-294.11"/>
<polygon fill="black" stroke="black" points="3516.5,-294.1 3513,-284.1 3509.5,-294.1 3516.5,-294.1"/>
</g>
<!-- left159 -->
<g id="node4" class="node">
<title>left159</title>
<polygon fill="none" stroke="black" points="1153,-212 581,-212 581,-176 1153,-176 1153,-212"/>
<text text-anchor="middle" x="867" y="-190.3" font-family="Times,serif" font-size="14.00">5efbbef4b4243a384ba79ddd89d63834382b0d808041810d6e6b11cf2a4dcaa6</text>
</g>
<!-- left955&#45;&gt;left159 -->
<g id="edge3" class="edge">
<title>left955&#45;&gt;left159</title>
<path fill="none" stroke="black" d="M1531.62,-247.99C1398.04,-237.34 1226.2,-223.64 1090.71,-212.84"/>
<polygon fill="black" stroke="black" points="1090.85,-209.34 1080.61,-212.03 1090.3,-216.31 1090.85,-209.34"/>
</g>
<!-- right159 -->
<g id="node7" class="node">
<title>right159</title>
<polygon fill="none" stroke="black" points="2027.5,-212 1462.5,-212 1462.5,-176 2027.5,-176 2027.5,-212"/>
<text text-anchor="middle" x="1745" y="-190.3" font-family="Times,serif" font-size="14.00">f64a18a0337af5d132519468ef67a158f71d899361f54f24db5e7ddd2a234552</text>
</g>
<!-- left955&#45;&gt;right159 -->
<g id="edge6" class="edge">
<title>left955&#45;&gt;right159</title>
<path fill="none" stroke="black" d="M1745,-247.7C1745,-239.98 1745,-230.71 1745,-222.11"/>
<polygon fill="black" stroke="black" points="1748.5,-222.1 1745,-212.1 1741.5,-222.1 1748.5,-222.1"/>
</g>
<!-- left687 -->
<g id="node5" class="node">
<title>left687</title>
<polygon fill="none" stroke="black" points="566,-140 0,-140 0,-104 566,-104 566,-140"/>
<text text-anchor="middle" x="283" y="-118.3" font-family="Times,serif" font-size="14.00">9baeb5b1fe0e92e6a0c3f6a96c9bb7ac8e3dee07468d698ba911255baf911e02</text>
</g>
<!-- left159&#45;&gt;left687 -->
<g id="edge4" class="edge">
<title>left159&#45;&gt;left687</title>
<path fill="none" stroke="black" d="M724.88,-175.97C637.1,-165.44 524.52,-151.95 434.96,-141.21"/>
<polygon fill="black" stroke="black" points="435.34,-137.73 424.99,-140.02 434.51,-144.69 435.34,-137.73"/>
</g>
<!-- right687 -->
<g id="node6" class="node">
<title>right687</title>
<polygon fill="none" stroke="black" points="1150,-140 584,-140 584,-104 1150,-104 1150,-140"/>
<text text-anchor="middle" x="867" y="-118.3" font-family="Times,serif" font-size="14.00">17f96dd7a303075fa47e88016c5857a030bf7065aa301f1b01543bdc3788bf1d</text>
</g>
<!-- left159&#45;&gt;right687 -->
<g id="edge5" class="edge">
<title>left159&#45;&gt;right687</title>
<path fill="none" stroke="black" d="M867,-175.7C867,-167.98 867,-158.71 867,-150.11"/>
<polygon fill="black" stroke="black" points="870.5,-150.1 867,-140.1 863.5,-150.1 870.5,-150.1"/>
</g>
<!-- 785 -->
<g id="node32" class="node">
<title>785</title>
<polygon fill="none" stroke="red" points="343,-68 223,-68 223,0 343,0 343,-68"/>
<text text-anchor="middle" x="283" y="-52.8" font-family="Times,serif" font-size="14.00">DCF0K3E9 </text>
<text text-anchor="middle" x="283" y="-37.8" font-family="Times,serif" font-size="14.00"> CodigoWallet </text>
<text text-anchor="middle" x="283" y="-22.8" font-family="Times,serif" font-size="14.00"> Dinero </text>
<text text-anchor="middle" x="283" y="-7.8" font-family="Times,serif" font-size="14.00"> PY&#45;100</text>
</g>
<!-- left687&#45;&gt;785 -->
<g id="edge31" class="edge">
<title>left687&#45;&gt;785</title>
<path fill="none" stroke="black" d="M283,-103.6C283,-96.18 283,-87.16 283,-78.14"/>
<polygon fill="black" stroke="black" points="286.5,-78.03 283,-68.03 279.5,-78.03 286.5,-78.03"/>
</g>
<!-- 13 -->
<g id="node33" class="node">
<title>13</title>
<polygon fill="none" stroke="red" points="927,-68 807,-68 807,0 927,0 927,-68"/>
<text text-anchor="middle" x="867" y="-52.8" font-family="Times,serif" font-size="14.00">JKNO0XTP </text>
<text text-anchor="middle" x="867" y="-37.8" font-family="Times,serif" font-size="14.00"> CodigoWallet </text>
<text text-anchor="middle" x="867" y="-22.8" font-family="Times,serif" font-size="14.00"> Dinero </text>
<text text-anchor="middle" x="867" y="-7.8" font-family="Times,serif" font-size="14.00"> PY&#45;100</text>
</g>
<!-- right687&#45;&gt;13 -->
<g id="edge32" class="edge">
<title>right687&#45;&gt;13</title>
<path fill="none" stroke="black" d="M867,-103.6C867,-96.18 867,-87.16 867,-78.14"/>
<polygon fill="black" stroke="black" points="870.5,-78.03 867,-68.03 863.5,-78.03 870.5,-78.03"/>
</g>
<!-- left500 -->
<g id="node8" class="node">
<title>left500</title>
<polygon fill="none" stroke="black" points="1729.5,-140 1168.5,-140 1168.5,-104 1729.5,-104 1729.5,-140"/>
<text text-anchor="middle" x="1449" y="-118.3" font-family="Times,serif" font-size="14.00">ffe60e666aef8fbebbba6ac6ac9b793d03101b7a0ae3236366b6e978fd126601</text>
</g>
<!-- right159&#45;&gt;left500 -->
<g id="edge7" class="edge">
<title>right159&#45;&gt;left500</title>
<path fill="none" stroke="black" d="M1672.97,-175.97C1630.09,-165.83 1575.55,-152.93 1531.02,-142.4"/>
<polygon fill="black" stroke="black" points="1531.63,-138.95 1521.1,-140.05 1530.02,-145.76 1531.63,-138.95"/>
</g>
<!-- right500 -->
<g id="node9" class="node">
<title>right500</title>
<polygon fill="none" stroke="black" points="2326,-140 1748,-140 1748,-104 2326,-104 2326,-140"/>
<text text-anchor="middle" x="2037" y="-118.3" font-family="Times,serif" font-size="14.00">75c20b15801ad0c7ce31d3644b2912ce04a6d69502a41a5d9cb8968b0e5c0079</text>
</g>
<!-- right159&#45;&gt;right500 -->
<g id="edge8" class="edge">
<title>right159&#45;&gt;right500</title>
<path fill="none" stroke="black" d="M1816.06,-175.97C1858.35,-165.83 1912.16,-152.93 1956.09,-142.4"/>
<polygon fill="black" stroke="black" points="1956.97,-145.78 1965.88,-140.05 1955.34,-138.98 1956.97,-145.78"/>
</g>
<!-- 855 -->
<g id="node34" class="node">
<title>855</title>
<polygon fill="none" stroke="red" points="1509,-68 1389,-68 1389,0 1509,0 1509,-68"/>
<text text-anchor="middle" x="1449" y="-52.8" font-family="Times,serif" font-size="14.00">DC67JYTU </text>
<text text-anchor="middle" x="1449" y="-37.8" font-family="Times,serif" font-size="14.00"> CodigoWallet </text>
<text text-anchor="middle" x="1449" y="-22.8" font-family="Times,serif" font-size="14.00"> Dinero </text>
<text text-anchor="middle" x="1449" y="-7.8" font-family="Times,serif" font-size="14.00"> PY&#45;100</text>
</g>
<!-- left500&#45;&gt;855 -->
<g id="edge33" class="edge">
<title>left500&#45;&gt;855</title>
<path fill="none" stroke="black" d="M1449,-103.6C1449,-96.18 1449,-87.16 1449,-78.14"/>
<polygon fill="black" stroke="black" points="1452.5,-78.03 1449,-68.03 1445.5,-78.03 1452.5,-78.03"/>
</g>
<!-- 701 -->
<g id="node35" class="node">
<title>701</title>
<polygon fill="none" stroke="red" points="2097,-68 1977,-68 1977,0 2097,0 2097,-68"/>
<text text-anchor="middle" x="2037" y="-52.8" font-family="Times,serif" font-size="14.00">JKJOZRCS </text>
<text text-anchor="middle" x="2037" y="-37.8" font-family="Times,serif" font-size="14.00"> CodigoWallet </text>
<text text-anchor="middle" x="2037" y="-22.8" font-family="Times,serif" font-size="14.00"> Dinero </text>
<text text-anchor="middle" x="2037" y="-7.8" font-family="Times,serif" font-size="14.00"> PY&#45;100</text>
</g>
<!-- right500&#45;&gt;701 -->
<g id="edge34" class="edge">
<title>right500&#45;&gt;701</title>
<path fill="none" stroke="black" d="M2037,-103.6C2037,-96.18 2037,-87.16 2037,-78.14"/>
<polygon fill="black" stroke="black" points="2040.5,-78.03 2037,-68.03 2033.5,-78.03 2040.5,-78.03"/>
</g>
<!-- left728 -->
<g id="node11" class="node">
<title>left728</title>
<polygon fill="none" stroke="black" points="3498.5,-212 2941.5,-212 2941.5,-176 3498.5,-176 3498.5,-212"/>
<text text-anchor="middle" x="3220" y="-190.3" font-family="Times,serif" font-size="14.00">ce10e14a9f20c2e634dd1260fd3b5b4dc222ff0d7dc13f08340f45ca824257ad</text>
</g>
<!-- right955&#45;&gt;left728 -->
<g id="edge10" class="edge">
<title>right955&#45;&gt;left728</title>
<path fill="none" stroke="black" d="M3441.7,-247.97C3399.26,-237.83 3345.26,-224.93 3301.19,-214.4"/>
<polygon fill="black" stroke="black" points="3301.91,-210.97 3291.37,-212.05 3300.28,-217.78 3301.91,-210.97"/>
</g>
<!-- right728 -->
<g id="node14" class="node">
<title>right728</title>
<polygon fill="none" stroke="black" points="4084,-212 3526,-212 3526,-176 4084,-176 4084,-212"/>
<text text-anchor="middle" x="3805" y="-190.3" font-family="Times,serif" font-size="14.00">ad8446e1c66c1300fcabaf97b2fdda2f542a14c84dcbb8164a07ed60f288cb7a</text>
</g>
<!-- right955&#45;&gt;right728 -->
<g id="edge13" class="edge">
<title>right955&#45;&gt;right728</title>
<path fill="none" stroke="black" d="M3584.06,-247.97C3626.35,-237.83 3680.16,-224.93 3724.09,-214.4"/>
<polygon fill="black" stroke="black" points="3724.97,-217.78 3733.88,-212.05 3723.34,-210.98 3724.97,-217.78"/>
</g>
<!-- left945 -->
<g id="node12" class="node">
<title>left945</title>
<polygon fill="none" stroke="black" points="2917.5,-140 2344.5,-140 2344.5,-104 2917.5,-104 2917.5,-140"/>
<text text-anchor="middle" x="2631" y="-118.3" font-family="Times,serif" font-size="14.00">69320327e7b11d804d963f56eb7b0b62158a462e796de99243baf924433f14fb</text>
</g>
<!-- left728&#45;&gt;left945 -->
<g id="edge11" class="edge">
<title>left728&#45;&gt;left945</title>
<path fill="none" stroke="black" d="M3076.67,-175.97C2988.13,-165.44 2874.59,-151.95 2784.27,-141.21"/>
<polygon fill="black" stroke="black" points="2784.55,-137.72 2774.21,-140.02 2783.73,-144.68 2784.55,-137.72"/>
</g>
<!-- right945 -->
<g id="node13" class="node">
<title>right945</title>
<polygon fill="none" stroke="black" points="3504.5,-140 2935.5,-140 2935.5,-104 3504.5,-104 3504.5,-140"/>
<text text-anchor="middle" x="3220" y="-118.3" font-family="Times,serif" font-size="14.00">6e17b25117d41856a46580bda6896dc7b5b794007731b35285ca0ae8cefe7ffe</text>
</g>
<!-- left728&#45;&gt;right945 -->
<g id="edge12" class="edge">
<title>left728&#45;&gt;right945</title>
<path fill="none" stroke="black" d="M3220,-175.7C3220,-167.98 3220,-158.71 3220,-150.11"/>
<polygon fill="black" stroke="black" points="3223.5,-150.1 3220,-140.1 3216.5,-150.1 3223.5,-150.1"/>
</g>
<!-- 530 -->
<g id="node36" class="node">
<title>530</title>
<polygon fill="none" stroke="red" points="2691,-68 2571,-68 2571,0 2691,0 2691,-68"/>
<text text-anchor="middle" x="2631" y="-52.8" font-family="Times,serif" font-size="14.00">JK63HPRT </text>
<text text-anchor="middle" x="2631" y="-37.8" font-family="Times,serif" font-size="14.00"> CodigoWallet </text>
<text text-anchor="middle" x="2631" y="-22.8" font-family="Times,serif" font-size="14.00"> Dinero </text>
<text text-anchor="middle" x="2631" y="-7.8" font-family="Times,serif" font-size="14.00"> PY&#45;100</text>
</g>
<!-- left945&#45;&gt;530 -->
<g id="edge35" class="edge">
<title>left945&#45;&gt;530</title>
<path fill="none" stroke="black" d="M2631,-103.6C2631,-96.18 2631,-87.16 2631,-78.14"/>
<polygon fill="black" stroke="black" points="2634.5,-78.03 2631,-68.03 2627.5,-78.03 2634.5,-78.03"/>
</g>
<!-- 380 -->
<g id="node37" class="node">
<title>380</title>
<polygon fill="none" stroke="red" points="3280,-68 3160,-68 3160,0 3280,0 3280,-68"/>
<text text-anchor="middle" x="3220" y="-52.8" font-family="Times,serif" font-size="14.00">DC7SN8HN </text>
<text text-anchor="middle" x="3220" y="-37.8" font-family="Times,serif" font-size="14.00"> CodigoWallet </text>
<text text-anchor="middle" x="3220" y="-22.8" font-family="Times,serif" font-size="14.00"> Dinero </text>
<text text-anchor="middle" x="3220" y="-7.8" font-family="Times,serif" font-size="14.00"> PY&#45;100</text>
</g>
<!-- right945&#45;&gt;380 -->
<g id="edge36" class="edge">
<title>right945&#45;&gt;380</title>
<path fill="none" stroke="black" d="M3220,-103.6C3220,-96.18 3220,-87.16 3220,-78.14"/>
<polygon fill="black" stroke="black" points="3223.5,-78.03 3220,-68.03 3216.5,-78.03 3223.5,-78.03"/>
</g>
<!-- left778 -->
<g id="node15" class="node">
<title>left778</title>
<polygon fill="none" stroke="black" points="4087,-140 3523,-140 3523,-104 4087,-104 4087,-140"/>
<text text-anchor="middle" x="3805" y="-118.3" font-family="Times,serif" font-size="14.00">3a7ca8c7e49a6339f343bfdcfad83469133e04ee46b61c65775ab95653f9d95a</text>
</g>
<!-- right728&#45;&gt;left778 -->
<g id="edge14" class="edge">
<title>right728&#45;&gt;left778</title>
<path fill="none" stroke="black" d="M3805,-175.7C3805,-167.98 3805,-158.71 3805,-150.11"/>
<polygon fill="black" stroke="black" points="3808.5,-150.1 3805,-140.1 3801.5,-150.1 3808.5,-150.1"/>
</g>
<!-- right778 -->
<g id="node16" class="node">
<title>right778</title>
<polygon fill="none" stroke="black" points="4661,-140 4105,-140 4105,-104 4661,-104 4661,-140"/>
<text text-anchor="middle" x="4383" y="-118.3" font-family="Times,serif" font-size="14.00">57d212fffafee5cd61875af791e3e02aae34d254ce274d8af0636916e53286c6</text>
</g>
<!-- right728&#45;&gt;right778 -->
<g id="edge15" class="edge">
<title>right728&#45;&gt;right778</title>
<path fill="none" stroke="black" d="M3945.66,-175.97C4032.45,-165.45 4143.74,-151.98 4232.33,-141.25"/>
<polygon fill="black" stroke="black" points="4232.96,-144.7 4242.47,-140.02 4232.12,-137.75 4232.96,-144.7"/>
</g>
<!-- 558 -->
<g id="node38" class="node">
<title>558</title>
<polygon fill="none" stroke="red" points="3865,-68 3745,-68 3745,0 3865,0 3865,-68"/>
<text text-anchor="middle" x="3805" y="-52.8" font-family="Times,serif" font-size="14.00">JKTIDCTG </text>
<text text-anchor="middle" x="3805" y="-37.8" font-family="Times,serif" font-size="14.00"> CodigoWallet </text>
<text text-anchor="middle" x="3805" y="-22.8" font-family="Times,serif" font-size="14.00"> Dinero </text>
<text text-anchor="middle" x="3805" y="-7.8" font-family="Times,serif" font-size="14.00"> PY&#45;100</text>
</g>
<!-- left778&#45;&gt;558 -->
<g id="edge37" class="edge">
<title>left778&#45;&gt;558</title>
<path fill="none" stroke="black" d="M3805,-103.6C3805,-96.18 3805,-87.16 3805,-78.14"/>
<polygon fill="black" stroke="black" points="3808.5,-78.03 3805,-68.03 3801.5,-78.03 3808.5,-78.03"/>
</g>
<!-- 717 -->
<g id="node39" class="node">
<title>717</title>
<polygon fill="none" stroke="red" points="4443,-68 4323,-68 4323,0 4443,0 4443,-68"/>
<text text-anchor="middle" x="4383" y="-52.8" font-family="Times,serif" font-size="14.00">JK3C3L4L </text>
<text text-anchor="middle" x="4383" y="-37.8" font-family="Times,serif" font-size="14.00"> CodigoWallet </text>
<text text-anchor="middle" x="4383" y="-22.8" font-family="Times,serif" font-size="14.00"> Dinero </text>
<text text-anchor="middle" x="4383" y="-7.8" font-family="Times,serif" font-size="14.00"> PY&#45;100</text>
</g>
<!-- right778&#45;&gt;717 -->
<g id="edge38" class="edge">
<title>right778&#45;&gt;717</title>
<path fill="none" stroke="black" d="M4383,-103.6C4383,-96.18 4383,-87.16 4383,-78.14"/>
<polygon fill="black" stroke="black" points="4386.5,-78.03 4383,-68.03 4379.5,-78.03 4386.5,-78.03"/>
</g>
<!-- left628 -->
<g id="node18" class="node">
<title>left628</title>
<polygon fill="none" stroke="black" points="6114,-284 5554,-284 5554,-248 6114,-248 6114,-284"/>
<text text-anchor="middle" x="5834" y="-262.3" font-family="Times,serif" font-size="14.00">becba9b569c412ddd1dfb1dda918c6f10090b4f666f2e8f30f0a2532a5356a76</text>
</g>
<!-- right692&#45;&gt;left628 -->
<g id="edge17" class="edge">
<title>right692&#45;&gt;left628</title>
<path fill="none" stroke="black" d="M5834,-319.7C5834,-311.98 5834,-302.71 5834,-294.11"/>
<polygon fill="black" stroke="black" points="5837.5,-294.1 5834,-284.1 5830.5,-294.1 5837.5,-294.1"/>
</g>
<!-- right628 -->
<g id="node25" class="node">
<title>right628</title>
<polygon fill="none" stroke="black" points="7867.5,-284 7308.5,-284 7308.5,-248 7867.5,-248 7867.5,-284"/>
<text text-anchor="middle" x="7588" y="-262.3" font-family="Times,serif" font-size="14.00">66140b9f88225bed58e002fc249e1f66d25d53ebf73aee1fd4ce7e55080a18fe</text>
</g>
<!-- right692&#45;&gt;right628 -->
<g id="edge24" class="edge">
<title>right692&#45;&gt;right628</title>
<path fill="none" stroke="black" d="M6113.38,-325.85C6437.56,-312.91 6969.5,-291.68 7298.09,-278.57"/>
<polygon fill="black" stroke="black" points="7298.39,-282.06 7308.24,-278.16 7298.11,-275.07 7298.39,-282.06"/>
</g>
<!-- left600 -->
<g id="node19" class="node">
<title>left600</title>
<polygon fill="none" stroke="black" points="5826.5,-212 5255.5,-212 5255.5,-176 5826.5,-176 5826.5,-212"/>
<text text-anchor="middle" x="5541" y="-190.3" font-family="Times,serif" font-size="14.00">78d1f25f77309b8368189d40fd9adc43376841d57c7a6a1b8471854d7b3cfd02</text>
</g>
<!-- left628&#45;&gt;left600 -->
<g id="edge18" class="edge">
<title>left628&#45;&gt;left600</title>
<path fill="none" stroke="black" d="M5762.7,-247.97C5720.26,-237.83 5666.26,-224.93 5622.19,-214.4"/>
<polygon fill="black" stroke="black" points="5622.91,-210.97 5612.37,-212.05 5621.28,-217.78 5622.91,-210.97"/>
</g>
<!-- right600 -->
<g id="node22" class="node">
<title>right600</title>
<polygon fill="none" stroke="black" points="6409.5,-212 5844.5,-212 5844.5,-176 6409.5,-176 6409.5,-212"/>
<text text-anchor="middle" x="6127" y="-190.3" font-family="Times,serif" font-size="14.00">1ad10ec859f2825f04d054133125e8c931704f90bce6bcb3186aad41ea5ed3bf</text>
</g>
<!-- left628&#45;&gt;right600 -->
<g id="edge21" class="edge">
<title>left628&#45;&gt;right600</title>
<path fill="none" stroke="black" d="M5905.3,-247.97C5947.74,-237.83 6001.74,-224.93 6045.81,-214.4"/>
<polygon fill="black" stroke="black" points="6046.72,-217.78 6055.63,-212.05 6045.09,-210.97 6046.72,-217.78"/>
</g>
<!-- left870 -->
<g id="node20" class="node">
<title>left870</title>
<polygon fill="none" stroke="black" points="5245,-140 4679,-140 4679,-104 5245,-104 5245,-140"/>
<text text-anchor="middle" x="4962" y="-118.3" font-family="Times,serif" font-size="14.00">2e91dd6ca526ccc9e38297b5bd0b688e53a6a40efd2d7ffac1098181811d9bde</text>
</g>
<!-- left600&#45;&gt;left870 -->
<g id="edge19" class="edge">
<title>left600&#45;&gt;left870</title>
<path fill="none" stroke="black" d="M5400.1,-175.97C5313.16,-165.45 5201.68,-151.98 5112.93,-141.25"/>
<polygon fill="black" stroke="black" points="5113.13,-137.75 5102.78,-140.02 5112.28,-144.69 5113.13,-137.75"/>
</g>
<!-- right870 -->
<g id="node21" class="node">
<title>right870</title>
<polygon fill="none" stroke="black" points="5825,-140 5263,-140 5263,-104 5825,-104 5825,-140"/>
<text text-anchor="middle" x="5544" y="-118.3" font-family="Times,serif" font-size="14.00">a4cb3a9650bd4d4bfd86b4a8b99c02a8ddf0267cdfc6138f13cd403f2096a76a</text>
</g>
<!-- left600&#45;&gt;right870 -->
<g id="edge20" class="edge">
<title>left600&#45;&gt;right870</title>
<path fill="none" stroke="black" d="M5541.74,-175.7C5542.07,-167.98 5542.47,-158.71 5542.84,-150.11"/>
<polygon fill="black" stroke="black" points="5546.34,-150.25 5543.27,-140.1 5539.34,-149.95 5546.34,-150.25"/>
</g>
<!-- 324 -->
<g id="node40" class="node">
<title>324</title>
<polygon fill="none" stroke="red" points="5022,-68 4902,-68 4902,0 5022,0 5022,-68"/>
<text text-anchor="middle" x="4962" y="-52.8" font-family="Times,serif" font-size="14.00">JKCTEPS9 </text>
<text text-anchor="middle" x="4962" y="-37.8" font-family="Times,serif" font-size="14.00"> CodigoWallet </text>
<text text-anchor="middle" x="4962" y="-22.8" font-family="Times,serif" font-size="14.00"> Dinero </text>
<text text-anchor="middle" x="4962" y="-7.8" font-family="Times,serif" font-size="14.00"> PY&#45;100</text>
</g>
<!-- left870&#45;&gt;324 -->
<g id="edge39" class="edge">
<title>left870&#45;&gt;324</title>
<path fill="none" stroke="black" d="M4962,-103.6C4962,-96.18 4962,-87.16 4962,-78.14"/>
<polygon fill="black" stroke="black" points="4965.5,-78.03 4962,-68.03 4958.5,-78.03 4965.5,-78.03"/>
</g>
<!-- 242 -->
<g id="node41" class="node">
<title>242</title>
<polygon fill="none" stroke="red" points="5604,-68 5484,-68 5484,0 5604,0 5604,-68"/>
<text text-anchor="middle" x="5544" y="-52.8" font-family="Times,serif" font-size="14.00">DCXMVF7J </text>
<text text-anchor="middle" x="5544" y="-37.8" font-family="Times,serif" font-size="14.00"> CodigoWallet </text>
<text text-anchor="middle" x="5544" y="-22.8" font-family="Times,serif" font-size="14.00"> Dinero </text>
<text text-anchor="middle" x="5544" y="-7.8" font-family="Times,serif" font-size="14.00"> PY&#45;100</text>
</g>
<!-- right870&#45;&gt;242 -->
<g id="edge40" class="edge">
<title>right870&#45;&gt;242</title>
<path fill="none" stroke="black" d="M5544,-103.6C5544,-96.18 5544,-87.16 5544,-78.14"/>
<polygon fill="black" stroke="black" points="5547.5,-78.03 5544,-68.03 5540.5,-78.03 5547.5,-78.03"/>
</g>
<!-- left737 -->
<g id="node23" class="node">
<title>left737</title>
<polygon fill="none" stroke="black" points="6407,-140 5843,-140 5843,-104 6407,-104 6407,-140"/>
<text text-anchor="middle" x="6125" y="-118.3" font-family="Times,serif" font-size="14.00">c867b14fb8c1c42ff69ecb7254e1673ca33d6ae25b1400277fab099a4d89d028</text>
</g>
<!-- right600&#45;&gt;left737 -->
<g id="edge22" class="edge">
<title>right600&#45;&gt;left737</title>
<path fill="none" stroke="black" d="M6126.51,-175.7C6126.29,-167.98 6126.02,-158.71 6125.77,-150.11"/>
<polygon fill="black" stroke="black" points="6129.27,-150 6125.49,-140.1 6122.28,-150.2 6129.27,-150"/>
</g>
<!-- right737 -->
<g id="node24" class="node">
<title>right737</title>
<polygon fill="none" stroke="black" points="6986.5,-140 6425.5,-140 6425.5,-104 6986.5,-104 6986.5,-140"/>
<text text-anchor="middle" x="6706" y="-118.3" font-family="Times,serif" font-size="14.00">a36901a62e380ed668f9bae3498f6e093f07b00778a639749f7ab90bf1c25f3e</text>
</g>
<!-- right600&#45;&gt;right737 -->
<g id="edge23" class="edge">
<title>right600&#45;&gt;right737</title>
<path fill="none" stroke="black" d="M6267.9,-175.97C6354.84,-165.45 6466.32,-151.98 6555.07,-141.25"/>
<polygon fill="black" stroke="black" points="6555.72,-144.69 6565.22,-140.02 6554.87,-137.75 6555.72,-144.69"/>
</g>
<!-- 362 -->
<g id="node42" class="node">
<title>362</title>
<polygon fill="none" stroke="red" points="6185,-68 6065,-68 6065,0 6185,0 6185,-68"/>
<text text-anchor="middle" x="6125" y="-52.8" font-family="Times,serif" font-size="14.00">DC5PNQHR </text>
<text text-anchor="middle" x="6125" y="-37.8" font-family="Times,serif" font-size="14.00"> CodigoWallet </text>
<text text-anchor="middle" x="6125" y="-22.8" font-family="Times,serif" font-size="14.00"> Dinero </text>
<text text-anchor="middle" x="6125" y="-7.8" font-family="Times,serif" font-size="14.00"> PY&#45;100</text>
</g>
<!-- left737&#45;&gt;362 -->
<g id="edge41" class="edge">
<title>left737&#45;&gt;362</title>
<path fill="none" stroke="black" d="M6125,-103.6C6125,-96.18 6125,-87.16 6125,-78.14"/>
<polygon fill="black" stroke="black" points="6128.5,-78.03 6125,-68.03 6121.5,-78.03 6128.5,-78.03"/>
</g>
<!-- 762 -->
<g id="node43" class="node">
<title>762</title>
<polygon fill="none" stroke="red" points="6766,-68 6646,-68 6646,0 6766,0 6766,-68"/>
<text text-anchor="middle" x="6706" y="-52.8" font-family="Times,serif" font-size="14.00">JKLXT7NO </text>
<text text-anchor="middle" x="6706" y="-37.8" font-family="Times,serif" font-size="14.00"> CodigoWallet </text>
<text text-anchor="middle" x="6706" y="-22.8" font-family="Times,serif" font-size="14.00"> Dinero </text>
<text text-anchor="middle" x="6706" y="-7.8" font-family="Times,serif" font-size="14.00"> PY&#45;100</text>
</g>
<!-- right737&#45;&gt;762 -->
<g id="edge42" class="edge">
<title>right737&#45;&gt;762</title>
<path fill="none" stroke="black" d="M6706,-103.6C6706,-96.18 6706,-87.16 6706,-78.14"/>
<polygon fill="black" stroke="black" points="6709.5,-78.03 6706,-68.03 6702.5,-78.03 6709.5,-78.03"/>
</g>
<!-- left662 -->
<g id="node26" class="node">
<title>left662</title>
<polygon fill="none" stroke="black" points="7871,-212 7305,-212 7305,-176 7871,-176 7871,-212"/>
<text text-anchor="middle" x="7588" y="-190.3" font-family="Times,serif" font-size="14.00">c82529c8d9ad5f978bc1e2a792f58aaf8e939a65633879bd31f0b48aebd84311</text>
</g>
<!-- right628&#45;&gt;left662 -->
<g id="edge25" class="edge">
<title>right628&#45;&gt;left662</title>
<path fill="none" stroke="black" d="M7588,-247.7C7588,-239.98 7588,-230.71 7588,-222.11"/>
<polygon fill="black" stroke="black" points="7591.5,-222.1 7588,-212.1 7584.5,-222.1 7591.5,-222.1"/>
</g>
<!-- right662 -->
<g id="node29" class="node">
<title>right662</title>
<polygon fill="none" stroke="black" points="8749,-212 8185,-212 8185,-176 8749,-176 8749,-212"/>
<text text-anchor="middle" x="8467" y="-190.3" font-family="Times,serif" font-size="14.00">5a5d867cbe610771bf0f84198c466b330d6b16c475cdf7d1beb9d5f87a664fa7</text>
</g>
<!-- right628&#45;&gt;right662 -->
<g id="edge28" class="edge">
<title>right628&#45;&gt;right662</title>
<path fill="none" stroke="black" d="M7801.62,-247.99C7935.35,-237.34 8107.39,-223.64 8243.03,-212.84"/>
<polygon fill="black" stroke="black" points="8243.46,-216.31 8253.15,-212.03 8242.9,-209.34 8243.46,-216.31"/>
</g>
<!-- left221 -->
<g id="node27" class="node">
<title>left221</title>
<polygon fill="none" stroke="black" points="7581,-140 7005,-140 7005,-104 7581,-104 7581,-140"/>
<text text-anchor="middle" x="7293" y="-118.3" font-family="Times,serif" font-size="14.00">5f620205e61a6b8c6297d92a6018d62e6758ceb04b5a4823ee906db926b23f5b</text>
</g>
<!-- left662&#45;&gt;left221 -->
<g id="edge26" class="edge">
<title>left662&#45;&gt;left221</title>
<path fill="none" stroke="black" d="M7516.21,-175.97C7473.48,-165.83 7419.12,-152.93 7374.74,-142.4"/>
<polygon fill="black" stroke="black" points="7375.39,-138.95 7364.85,-140.05 7373.78,-145.76 7375.39,-138.95"/>
</g>
<!-- right221 -->
<g id="node28" class="node">
<title>right221</title>
<polygon fill="none" stroke="black" points="8167,-140 7599,-140 7599,-104 8167,-104 8167,-140"/>
<text text-anchor="middle" x="7883" y="-118.3" font-family="Times,serif" font-size="14.00">e89e1a530b804fe14254bedbfc7789d96142c2b4d0b0163fb774ac68396bf3e7</text>
</g>
<!-- left662&#45;&gt;right221 -->
<g id="edge27" class="edge">
<title>left662&#45;&gt;right221</title>
<path fill="none" stroke="black" d="M7659.79,-175.97C7702.52,-165.83 7756.88,-152.93 7801.26,-142.4"/>
<polygon fill="black" stroke="black" points="7802.22,-145.76 7811.15,-140.05 7800.61,-138.95 7802.22,-145.76"/>
</g>
<!-- 723 -->
<g id="node44" class="node">
<title>723</title>
<polygon fill="none" stroke="red" points="7353,-68 7233,-68 7233,0 7353,0 7353,-68"/>
<text text-anchor="middle" x="7293" y="-52.8" font-family="Times,serif" font-size="14.00">JKMKG9J8 </text>
<text text-anchor="middle" x="7293" y="-37.8" font-family="Times,serif" font-size="14.00"> CodigoWallet </text>
<text text-anchor="middle" x="7293" y="-22.8" font-family="Times,serif" font-size="14.00"> Dinero </text>
<text text-anchor="middle" x="7293" y="-7.8" font-family="Times,serif" font-size="14.00"> PY&#45;100</text>
</g>
<!-- left221&#45;&gt;723 -->
<g id="edge43" class="edge">
<title>left221&#45;&gt;723</title>
<path fill="none" stroke="black" d="M7293,-103.6C7293,-96.18 7293,-87.16 7293,-78.14"/>
<polygon fill="black" stroke="black" points="7296.5,-78.03 7293,-68.03 7289.5,-78.03 7296.5,-78.03"/>
</g>
<!-- 186 -->
<g id="node45" class="node">
<title>186</title>
<polygon fill="none" stroke="red" points="7943,-68 7823,-68 7823,0 7943,0 7943,-68"/>
<text text-anchor="middle" x="7883" y="-52.8" font-family="Times,serif" font-size="14.00">JKNYNWFF </text>
<text text-anchor="middle" x="7883" y="-37.8" font-family="Times,serif" font-size="14.00"> CodigoWallet </text>
<text text-anchor="middle" x="7883" y="-22.8" font-family="Times,serif" font-size="14.00"> Dinero </text>
<text text-anchor="middle" x="7883" y="-7.8" font-family="Times,serif" font-size="14.00"> PY&#45;100</text>
</g>
<!-- right221&#45;&gt;186 -->
<g id="edge44" class="edge">
<title>right221&#45;&gt;186</title>
<path fill="none" stroke="black" d="M7883,-103.6C7883,-96.18 7883,-87.16 7883,-78.14"/>
<polygon fill="black" stroke="black" points="7886.5,-78.03 7883,-68.03 7879.5,-78.03 7886.5,-78.03"/>
</g>
<!-- left893 -->
<g id="node30" class="node">
<title>left893</title>
<polygon fill="none" stroke="black" points="8748.5,-140 8185.5,-140 8185.5,-104 8748.5,-104 8748.5,-140"/>
<text text-anchor="middle" x="8467" y="-118.3" font-family="Times,serif" font-size="14.00">233d6702ac7af706e8a36fdbd7de685c0d1d9cbd4283f9fac23ece40237730c0</text>
</g>
<!-- right662&#45;&gt;left893 -->
<g id="edge29" class="edge">
<title>right662&#45;&gt;left893</title>
<path fill="none" stroke="black" d="M8467,-175.7C8467,-167.98 8467,-158.71 8467,-150.11"/>
<polygon fill="black" stroke="black" points="8470.5,-150.1 8467,-140.1 8463.5,-150.1 8470.5,-150.1"/>
</g>
<!-- right893 -->
<g id="node31" class="node">
<title>right893</title>
<polygon fill="none" stroke="black" points="9329.5,-140 8766.5,-140 8766.5,-104 9329.5,-104 9329.5,-140"/>
<text text-anchor="middle" x="9048" y="-118.3" font-family="Times,serif" font-size="14.00">233d6702ac7af706e8a36fdbd7de685c0d1d9cbd4283f9fac23ece40237730c0</text>
</g>
<!-- right662&#45;&gt;right893 -->
<g id="edge30" class="edge">
<title>right662&#45;&gt;right893</title>
<path fill="none" stroke="black" d="M8608.39,-175.97C8695.63,-165.45 8807.49,-151.98 8896.54,-141.25"/>
<polygon fill="black" stroke="black" points="8897.23,-144.69 8906.74,-140.02 8896.39,-137.74 8897.23,-144.69"/>
</g>
<!-- 102 -->
<g id="node46" class="node">
<title>102</title>
<polygon fill="none" stroke="red" points="8527,-68 8407,-68 8407,0 8527,0 8527,-68"/>
<text text-anchor="middle" x="8467" y="-52.8" font-family="Times,serif" font-size="14.00">DCIEIUO6 </text>
<text text-anchor="middle" x="8467" y="-37.8" font-family="Times,serif" font-size="14.00"> CodigoWallet </text>
<text text-anchor="middle" x="8467" y="-22.8" font-family="Times,serif" font-size="14.00"> Dinero </text>
<text text-anchor="middle" x="8467" y="-7.8" font-family="Times,serif" font-size="14.00"> PY&#45;100</text>
</g>
<!-- left893&#45;&gt;102 -->
<g id="edge45" class="edge">
<title>left893&#45;&gt;102</title>
<path fill="none" stroke="black" d="M8467,-103.6C8467,-96.18 8467,-87.16 8467,-78.14"/>
<polygon fill="black" stroke="black" points="8470.5,-78.03 8467,-68.03 8463.5,-78.03 8470.5,-78.03"/>
</g>
</g>
</svg>
