<?xml version="1.0" encoding="UTF-8" standalone="no"?>
<!DOCTYPE svg PUBLIC "-//W3C//DTD SVG 1.1//EN"
 "http://www.w3.org/Graphics/SVG/1.1/DTD/svg11.dtd">
<!-- Generated by graphviz version 2.43.0 (0)
 -->
<!-- Title: G Pages: 1 -->
<svg width="9338pt" height="436pt"
 viewBox="0.00 0.00 9337.50 436.00" xmlns="http://www.w3.org/2000/svg" xmlns:xlink="http://www.w3.org/1999/xlink">
<g id="graph0" class="graph" transform="scale(1 1) rotate(0) translate(4 432)">
<title>G</title>
<polygon fill="white" stroke="transparent" points="-4,4 -4,-432 9333.5,-432 9333.5,4 -4,4"/>
<!-- root678 -->
<g id="node1" class="node">
<title>root678</title>
<polygon fill="lime" stroke="blue" points="4669.5,-428 4090.5,-428 4090.5,-392 4669.5,-392 4669.5,-428"/>
<text text-anchor="middle" x="4380" y="-406.3" font-family="Times,serif" font-size="14.00">74143a245459b3e83e94a170372f4d4e72cd904595090a6d500ed9de09c6232a</text>
</g>
<!-- left778 -->
<g id="node2" class="node">
<title>left778</title>
<polygon fill="lime" stroke="blue" points="3803,-356 3223,-356 3223,-320 3803,-320 3803,-356"/>
<text text-anchor="middle" x="3513" y="-334.3" font-family="Times,serif" font-size="14.00">d2e207b9ec4470b06221314926b4b2e1bba7cf87ed254944e45968ad496be978</text>
</g>
<!-- root678&#45;&gt;left778 -->
<g id="edge1" class="edge">
<title>root678&#45;&gt;left778</title>
<path fill="none" stroke="black" d="M4169.29,-391.99C4037.39,-381.34 3867.7,-367.64 3733.91,-356.84"/>
<polygon fill="black" stroke="black" points="3734.18,-353.35 3723.93,-356.03 3733.62,-360.32 3734.18,-353.35"/>
</g>
<!-- right778 -->
<g id="node17" class="node">
<title>right778</title>
<polygon fill="lime" stroke="blue" points="6113,-356 5555,-356 5555,-320 6113,-320 6113,-356"/>
<text text-anchor="middle" x="5834" y="-334.3" font-family="Times,serif" font-size="14.00">b50bebd8669f4f9dfe38628e129b37f86c6e57374c48cfc1a267acc8276a2a3a</text>
</g>
<!-- root678&#45;&gt;right778 -->
<g id="edge16" class="edge">
<title>root678&#45;&gt;right778</title>
<path fill="none" stroke="black" d="M4669.87,-395.04C4923.82,-382.82 5290.96,-365.14 5544.73,-352.93"/>
<polygon fill="black" stroke="black" points="5545.02,-356.42 5554.84,-352.44 5544.68,-349.42 5545.02,-356.42"/>
</g>
<!-- left827 -->
<g id="node3" class="node">
<title>left827</title>
<polygon fill="lime" stroke="blue" points="2025,-284 1465,-284 1465,-248 2025,-248 2025,-284"/>
<text text-anchor="middle" x="1745" y="-262.3" font-family="Times,serif" font-size="14.00">3f1a00e01d4595ff781c047df3e094ffd182314eccd31a23882a10575483666b</text>
</g>
<!-- left778&#45;&gt;left827 -->
<g id="edge2" class="edge">
<title>left778&#45;&gt;left827</title>
<path fill="none" stroke="black" d="M3222.54,-325.5C2894.35,-312.51 2363.32,-291.48 2035.24,-278.49"/>
<polygon fill="black" stroke="black" points="2035.23,-274.99 2025.1,-278.09 2034.96,-281.98 2035.23,-274.99"/>
</g>
<!-- right827 -->
<g id="node10" class="node">
<title>right827</title>
<polygon fill="lime" stroke="blue" points="3802.5,-284 3223.5,-284 3223.5,-248 3802.5,-248 3802.5,-284"/>
<text text-anchor="middle" x="3513" y="-262.3" font-family="Times,serif" font-size="14.00">17beac0d8ae183632b91793bd3e212986221f7c1d4583c530276468d2cb3812b</text>
</g>
<!-- left778&#45;&gt;right827 -->
<g id="edge9" class="edge">
<title>left778&#45;&gt;right827</title>
<path fill="none" stroke="black" d="M3513,-319.7C3513,-311.98 3513,-302.71 3513,-294.11"/>
<polygon fill="black" stroke="black" points="3516.5,-294.1 3513,-284.1 3509.5,-294.1 3516.5,-294.1"/>
</g>
<!-- left144 -->
<g id="node4" class="node">
<title>left144</title>
<polygon fill="lime" stroke="blue" points="1153,-212 581,-212 581,-176 1153,-176 1153,-212"/>
<text text-anchor="middle" x="867" y="-190.3" font-family="Times,serif" font-size="14.00">5efbbef4b4243a384ba79ddd89d63834382b0d808041810d6e6b11cf2a4dcaa6</text>
</g>
<!-- left827&#45;&gt;left144 -->
<g id="edge3" class="edge">
<title>left827&#45;&gt;left144</title>
<path fill="none" stroke="black" d="M1531.62,-247.99C1398.04,-237.34 1226.2,-223.64 1090.71,-212.84"/>
<polygon fill="black" stroke="black" points="1090.85,-209.34 1080.61,-212.03 1090.3,-216.31 1090.85,-209.34"/>
</g>
<!-- right144 -->
<g id="node7" class="node">
<title>right144</title>
<polygon fill="lime" stroke="blue" points="2027.5,-212 1462.5,-212 1462.5,-176 2027.5,-176 2027.5,-212"/>
<text text-anchor="middle" x="1745" y="-190.3" font-family="Times,serif" font-size="14.00">f64a18a0337af5d132519468ef67a158f71d899361f54f24db5e7ddd2a234552</text>
</g>
<!-- left827&#45;&gt;right144 -->
<g id="edge6" class="edge">
<title>left827&#45;&gt;right144</title>
<path fill="none" stroke="black" d="M1745,-247.7C1745,-239.98 1745,-230.71 1745,-222.11"/>
<polygon fill="black" stroke="black" points="1748.5,-222.1 1745,-212.1 1741.5,-222.1 1748.5,-222.1"/>
</g>
<!-- left506 -->
<g id="node5" class="node">
<title>left506</title>
<polygon fill="lime" stroke="blue" points="566,-140 0,-140 0,-104 566,-104 566,-140"/>
<text text-anchor="middle" x="283" y="-118.3" font-family="Times,serif" font-size="14.00">9baeb5b1fe0e92e6a0c3f6a96c9bb7ac8e3dee07468d698ba911255baf911e02</text>
</g>
<!-- left144&#45;&gt;left506 -->
<g id="edge4" class="edge">
<title>left144&#45;&gt;left506</title>
<path fill="none" stroke="black" d="M724.88,-175.97C637.1,-165.44 524.52,-151.95 434.96,-141.21"/>
<polygon fill="black" stroke="black" points="435.34,-137.73 424.99,-140.02 434.51,-144.69 435.34,-137.73"/>
</g>
<!-- right506 -->
<g id="node6" class="node">
<title>right506</title>
<polygon fill="lime" stroke="blue" points="1150,-140 584,-140 584,-104 1150,-104 1150,-140"/>
<text text-anchor="middle" x="867" y="-118.3" font-family="Times,serif" font-size="14.00">17f96dd7a303075fa47e88016c5857a030bf7065aa301f1b01543bdc3788bf1d</text>
</g>
<!-- left144&#45;&gt;right506 -->
<g id="edge5" class="edge">
<title>left144&#45;&gt;right506</title>
<path fill="none" stroke="black" d="M867,-175.7C867,-167.98 867,-158.71 867,-150.11"/>
<polygon fill="black" stroke="black" points="870.5,-150.1 867,-140.1 863.5,-150.1 870.5,-150.1"/>
</g>
<!-- 751 -->
<g id="node32" class="node">
<title>751</title>
<polygon fill="yellow" stroke="red" points="370,-68 196,-68 196,0 370,0 370,-68"/>
<text text-anchor="middle" x="283" y="-52.8" font-family="Times,serif" font-size="14.00"> 02/11/2023 22:19:20 </text>
<text text-anchor="middle" x="283" y="-37.8" font-family="Times,serif" font-size="14.00"> DCF0K3E9 </text>
<text text-anchor="middle" x="283" y="-22.8" font-family="Times,serif" font-size="14.00"> 18 </text>
<text text-anchor="middle" x="283" y="-7.8" font-family="Times,serif" font-size="14.00"> PY&#45;100</text>
</g>
<!-- left506&#45;&gt;751 -->
<g id="edge31" class="edge">
<title>left506&#45;&gt;751</title>
<path fill="none" stroke="black" d="M283,-103.6C283,-96.18 283,-87.16 283,-78.14"/>
<polygon fill="black" stroke="black" points="286.5,-78.03 283,-68.03 279.5,-78.03 286.5,-78.03"/>
</g>
<!-- 281 -->
<g id="node33" class="node">
<title>281</title>
<polygon fill="yellow" stroke="red" points="954,-68 780,-68 780,0 954,0 954,-68"/>
<text text-anchor="middle" x="867" y="-52.8" font-family="Times,serif" font-size="14.00"> 02/11/2023 22:19:20 </text>
<text text-anchor="middle" x="867" y="-37.8" font-family="Times,serif" font-size="14.00"> JKNO0XTP </text>
<text text-anchor="middle" x="867" y="-22.8" font-family="Times,serif" font-size="14.00"> 908 </text>
<text text-anchor="middle" x="867" y="-7.8" font-family="Times,serif" font-size="14.00"> PY&#45;100</text>
</g>
<!-- right506&#45;&gt;281 -->
<g id="edge32" class="edge">
<title>right506&#45;&gt;281</title>
<path fill="none" stroke="black" d="M867,-103.6C867,-96.18 867,-87.16 867,-78.14"/>
<polygon fill="black" stroke="black" points="870.5,-78.03 867,-68.03 863.5,-78.03 870.5,-78.03"/>
</g>
<!-- left848 -->
<g id="node8" class="node">
<title>left848</title>
<polygon fill="lime" stroke="blue" points="1729.5,-140 1168.5,-140 1168.5,-104 1729.5,-104 1729.5,-140"/>
<text text-anchor="middle" x="1449" y="-118.3" font-family="Times,serif" font-size="14.00">ffe60e666aef8fbebbba6ac6ac9b793d03101b7a0ae3236366b6e978fd126601</text>
</g>
<!-- right144&#45;&gt;left848 -->
<g id="edge7" class="edge">
<title>right144&#45;&gt;left848</title>
<path fill="none" stroke="black" d="M1672.97,-175.97C1630.09,-165.83 1575.55,-152.93 1531.02,-142.4"/>
<polygon fill="black" stroke="black" points="1531.63,-138.95 1521.1,-140.05 1530.02,-145.76 1531.63,-138.95"/>
</g>
<!-- right848 -->
<g id="node9" class="node">
<title>right848</title>
<polygon fill="lime" stroke="blue" points="2326,-140 1748,-140 1748,-104 2326,-104 2326,-140"/>
<text text-anchor="middle" x="2037" y="-118.3" font-family="Times,serif" font-size="14.00">75c20b15801ad0c7ce31d3644b2912ce04a6d69502a41a5d9cb8968b0e5c0079</text>
</g>
<!-- right144&#45;&gt;right848 -->
<g id="edge8" class="edge">
<title>right144&#45;&gt;right848</title>
<path fill="none" stroke="black" d="M1816.06,-175.97C1858.35,-165.83 1912.16,-152.93 1956.09,-142.4"/>
<polygon fill="black" stroke="black" points="1956.97,-145.78 1965.88,-140.05 1955.34,-138.98 1956.97,-145.78"/>
</g>
<!-- 28 -->
<g id="node34" class="node">
<title>28</title>
<polygon fill="yellow" stroke="red" points="1536,-68 1362,-68 1362,0 1536,0 1536,-68"/>
<text text-anchor="middle" x="1449" y="-52.8" font-family="Times,serif" font-size="14.00"> 02/11/2023 22:19:20 </text>
<text text-anchor="middle" x="1449" y="-37.8" font-family="Times,serif" font-size="14.00"> DC67JYTU </text>
<text text-anchor="middle" x="1449" y="-22.8" font-family="Times,serif" font-size="14.00"> 62 </text>
<text text-anchor="middle" x="1449" y="-7.8" font-family="Times,serif" font-size="14.00"> PY&#45;100</text>
</g>
<!-- left848&#45;&gt;28 -->
<g id="edge33" class="edge">
<title>left848&#45;&gt;28</title>
<path fill="none" stroke="black" d="M1449,-103.6C1449,-96.18 1449,-87.16 1449,-78.14"/>
<polygon fill="black" stroke="black" points="1452.5,-78.03 1449,-68.03 1445.5,-78.03 1452.5,-78.03"/>
</g>
<!-- 302 -->
<g id="node35" class="node">
<title>302</title>
<polygon fill="yellow" stroke="red" points="2124,-68 1950,-68 1950,0 2124,0 2124,-68"/>
<text text-anchor="middle" x="2037" y="-52.8" font-family="Times,serif" font-size="14.00"> 02/11/2023 22:19:20 </text>
<text text-anchor="middle" x="2037" y="-37.8" font-family="Times,serif" font-size="14.00"> JKJOZRCS </text>
<text text-anchor="middle" x="2037" y="-22.8" font-family="Times,serif" font-size="14.00"> 93 </text>
<text text-anchor="middle" x="2037" y="-7.8" font-family="Times,serif" font-size="14.00"> PY&#45;100</text>
</g>
<!-- right848&#45;&gt;302 -->
<g id="edge34" class="edge">
<title>right848&#45;&gt;302</title>
<path fill="none" stroke="black" d="M2037,-103.6C2037,-96.18 2037,-87.16 2037,-78.14"/>
<polygon fill="black" stroke="black" points="2040.5,-78.03 2037,-68.03 2033.5,-78.03 2040.5,-78.03"/>
</g>
<!-- left224 -->
<g id="node11" class="node">
<title>left224</title>
<polygon fill="lime" stroke="blue" points="3498.5,-212 2941.5,-212 2941.5,-176 3498.5,-176 3498.5,-212"/>
<text text-anchor="middle" x="3220" y="-190.3" font-family="Times,serif" font-size="14.00">ce10e14a9f20c2e634dd1260fd3b5b4dc222ff0d7dc13f08340f45ca824257ad</text>
</g>
<!-- right827&#45;&gt;left224 -->
<g id="edge10" class="edge">
<title>right827&#45;&gt;left224</title>
<path fill="none" stroke="black" d="M3441.7,-247.97C3399.26,-237.83 3345.26,-224.93 3301.19,-214.4"/>
<polygon fill="black" stroke="black" points="3301.91,-210.97 3291.37,-212.05 3300.28,-217.78 3301.91,-210.97"/>
</g>
<!-- right224 -->
<g id="node14" class="node">
<title>right224</title>
<polygon fill="lime" stroke="blue" points="4084,-212 3526,-212 3526,-176 4084,-176 4084,-212"/>
<text text-anchor="middle" x="3805" y="-190.3" font-family="Times,serif" font-size="14.00">ad8446e1c66c1300fcabaf97b2fdda2f542a14c84dcbb8164a07ed60f288cb7a</text>
</g>
<!-- right827&#45;&gt;right224 -->
<g id="edge13" class="edge">
<title>right827&#45;&gt;right224</title>
<path fill="none" stroke="black" d="M3584.06,-247.97C3626.35,-237.83 3680.16,-224.93 3724.09,-214.4"/>
<polygon fill="black" stroke="black" points="3724.97,-217.78 3733.88,-212.05 3723.34,-210.98 3724.97,-217.78"/>
</g>
<!-- left804 -->
<g id="node12" class="node">
<title>left804</title>
<polygon fill="lime" stroke="blue" points="2917.5,-140 2344.5,-140 2344.5,-104 2917.5,-104 2917.5,-140"/>
<text text-anchor="middle" x="2631" y="-118.3" font-family="Times,serif" font-size="14.00">69320327e7b11d804d963f56eb7b0b62158a462e796de99243baf924433f14fb</text>
</g>
<!-- left224&#45;&gt;left804 -->
<g id="edge11" class="edge">
<title>left224&#45;&gt;left804</title>
<path fill="none" stroke="black" d="M3076.67,-175.97C2988.13,-165.44 2874.59,-151.95 2784.27,-141.21"/>
<polygon fill="black" stroke="black" points="2784.55,-137.72 2774.21,-140.02 2783.73,-144.68 2784.55,-137.72"/>
</g>
<!-- right804 -->
<g id="node13" class="node">
<title>right804</title>
<polygon fill="lime" stroke="blue" points="3504.5,-140 2935.5,-140 2935.5,-104 3504.5,-104 3504.5,-140"/>
<text text-anchor="middle" x="3220" y="-118.3" font-family="Times,serif" font-size="14.00">6e17b25117d41856a46580bda6896dc7b5b794007731b35285ca0ae8cefe7ffe</text>
</g>
<!-- left224&#45;&gt;right804 -->
<g id="edge12" class="edge">
<title>left224&#45;&gt;right804</title>
<path fill="none" stroke="black" d="M3220,-175.7C3220,-167.98 3220,-158.71 3220,-150.11"/>
<polygon fill="black" stroke="black" points="3223.5,-150.1 3220,-140.1 3216.5,-150.1 3223.5,-150.1"/>
</g>
<!-- 976 -->
<g id="node36" class="node">
<title>976</title>
<polygon fill="yellow" stroke="red" points="2718,-68 2544,-68 2544,0 2718,0 2718,-68"/>
<text text-anchor="middle" x="2631" y="-52.8" font-family="Times,serif" font-size="14.00"> 02/11/2023 22:19:20 </text>
<text text-anchor="middle" x="2631" y="-37.8" font-family="Times,serif" font-size="14.00"> JK63HPRT </text>
<text text-anchor="middle" x="2631" y="-22.8" font-family="Times,serif" font-size="14.00"> 30 </text>
<text text-anchor="middle" x="2631" y="-7.8" font-family="Times,serif" font-size="14.00"> PY&#45;100</text>
</g>
<!-- left804&#45;&gt;976 -->
<g id="edge35" class="edge">
<title>left804&#45;&gt;976</title>
<path fill="none" stroke="black" d="M2631,-103.6C2631,-96.18 2631,-87.16 2631,-78.14"/>
<polygon fill="black" stroke="black" points="2634.5,-78.03 2631,-68.03 2627.5,-78.03 2634.5,-78.03"/>
</g>
<!-- 441 -->
<g id="node37" class="node">
<title>441</title>
<polygon fill="yellow" stroke="red" points="3307,-68 3133,-68 3133,0 3307,0 3307,-68"/>
<text text-anchor="middle" x="3220" y="-52.8" font-family="Times,serif" font-size="14.00"> 02/11/2023 22:19:20 </text>
<text text-anchor="middle" x="3220" y="-37.8" font-family="Times,serif" font-size="14.00"> DC7SN8HN </text>
<text text-anchor="middle" x="3220" y="-22.8" font-family="Times,serif" font-size="14.00"> 719 </text>
<text text-anchor="middle" x="3220" y="-7.8" font-family="Times,serif" font-size="14.00"> PY&#45;100</text>
</g>
<!-- right804&#45;&gt;441 -->
<g id="edge36" class="edge">
<title>right804&#45;&gt;441</title>
<path fill="none" stroke="black" d="M3220,-103.6C3220,-96.18 3220,-87.16 3220,-78.14"/>
<polygon fill="black" stroke="black" points="3223.5,-78.03 3220,-68.03 3216.5,-78.03 3223.5,-78.03"/>
</g>
<!-- left633 -->
<g id="node15" class="node">
<title>left633</title>
<polygon fill="lime" stroke="blue" points="4087,-140 3523,-140 3523,-104 4087,-104 4087,-140"/>
<text text-anchor="middle" x="3805" y="-118.3" font-family="Times,serif" font-size="14.00">3a7ca8c7e49a6339f343bfdcfad83469133e04ee46b61c65775ab95653f9d95a</text>
</g>
<!-- right224&#45;&gt;left633 -->
<g id="edge14" class="edge">
<title>right224&#45;&gt;left633</title>
<path fill="none" stroke="black" d="M3805,-175.7C3805,-167.98 3805,-158.71 3805,-150.11"/>
<polygon fill="black" stroke="black" points="3808.5,-150.1 3805,-140.1 3801.5,-150.1 3808.5,-150.1"/>
</g>
<!-- right633 -->
<g id="node16" class="node">
<title>right633</title>
<polygon fill="lime" stroke="blue" points="4661,-140 4105,-140 4105,-104 4661,-104 4661,-140"/>
<text text-anchor="middle" x="4383" y="-118.3" font-family="Times,serif" font-size="14.00">57d212fffafee5cd61875af791e3e02aae34d254ce274d8af0636916e53286c6</text>
</g>
<!-- right224&#45;&gt;right633 -->
<g id="edge15" class="edge">
<title>right224&#45;&gt;right633</title>
<path fill="none" stroke="black" d="M3945.66,-175.97C4032.45,-165.45 4143.74,-151.98 4232.33,-141.25"/>
<polygon fill="black" stroke="black" points="4232.96,-144.7 4242.47,-140.02 4232.12,-137.75 4232.96,-144.7"/>
</g>
<!-- 39 -->
<g id="node38" class="node">
<title>39</title>
<polygon fill="yellow" stroke="red" points="3892,-68 3718,-68 3718,0 3892,0 3892,-68"/>
<text text-anchor="middle" x="3805" y="-52.8" font-family="Times,serif" font-size="14.00"> 02/11/2023 22:19:20 </text>
<text text-anchor="middle" x="3805" y="-37.8" font-family="Times,serif" font-size="14.00"> JKTIDCTG </text>
<text text-anchor="middle" x="3805" y="-22.8" font-family="Times,serif" font-size="14.00"> 4 </text>
<text text-anchor="middle" x="3805" y="-7.8" font-family="Times,serif" font-size="14.00"> PY&#45;100</text>
</g>
<!-- left633&#45;&gt;39 -->
<g id="edge37" class="edge">
<title>left633&#45;&gt;39</title>
<path fill="none" stroke="black" d="M3805,-103.6C3805,-96.18 3805,-87.16 3805,-78.14"/>
<polygon fill="black" stroke="black" points="3808.5,-78.03 3805,-68.03 3801.5,-78.03 3808.5,-78.03"/>
</g>
<!-- 732 -->
<g id="node39" class="node">
<title>732</title>
<polygon fill="yellow" stroke="red" points="4470,-68 4296,-68 4296,0 4470,0 4470,-68"/>
<text text-anchor="middle" x="4383" y="-52.8" font-family="Times,serif" font-size="14.00"> 02/11/2023 22:19:20 </text>
<text text-anchor="middle" x="4383" y="-37.8" font-family="Times,serif" font-size="14.00"> JK3C3L4L </text>
<text text-anchor="middle" x="4383" y="-22.8" font-family="Times,serif" font-size="14.00"> 500 </text>
<text text-anchor="middle" x="4383" y="-7.8" font-family="Times,serif" font-size="14.00"> PY&#45;100</text>
</g>
<!-- right633&#45;&gt;732 -->
<g id="edge38" class="edge">
<title>right633&#45;&gt;732</title>
<path fill="none" stroke="black" d="M4383,-103.6C4383,-96.18 4383,-87.16 4383,-78.14"/>
<polygon fill="black" stroke="black" points="4386.5,-78.03 4383,-68.03 4379.5,-78.03 4386.5,-78.03"/>
</g>
<!-- left551 -->
<g id="node18" class="node">
<title>left551</title>
<polygon fill="lime" stroke="blue" points="6114,-284 5554,-284 5554,-248 6114,-248 6114,-284"/>
<text text-anchor="middle" x="5834" y="-262.3" font-family="Times,serif" font-size="14.00">becba9b569c412ddd1dfb1dda918c6f10090b4f666f2e8f30f0a2532a5356a76</text>
</g>
<!-- right778&#45;&gt;left551 -->
<g id="edge17" class="edge">
<title>right778&#45;&gt;left551</title>
<path fill="none" stroke="black" d="M5834,-319.7C5834,-311.98 5834,-302.71 5834,-294.11"/>
<polygon fill="black" stroke="black" points="5837.5,-294.1 5834,-284.1 5830.5,-294.1 5837.5,-294.1"/>
</g>
<!-- right551 -->
<g id="node25" class="node">
<title>right551</title>
<polygon fill="lime" stroke="blue" points="7867.5,-284 7308.5,-284 7308.5,-248 7867.5,-248 7867.5,-284"/>
<text text-anchor="middle" x="7588" y="-262.3" font-family="Times,serif" font-size="14.00">66140b9f88225bed58e002fc249e1f66d25d53ebf73aee1fd4ce7e55080a18fe</text>
</g>
<!-- right778&#45;&gt;right551 -->
<g id="edge24" class="edge">
<title>right778&#45;&gt;right551</title>
<path fill="none" stroke="black" d="M6113.38,-325.85C6437.56,-312.91 6969.5,-291.68 7298.09,-278.57"/>
<polygon fill="black" stroke="black" points="7298.39,-282.06 7308.24,-278.16 7298.11,-275.07 7298.39,-282.06"/>
</g>
<!-- left631 -->
<g id="node19" class="node">
<title>left631</title>
<polygon fill="lime" stroke="blue" points="5826.5,-212 5255.5,-212 5255.5,-176 5826.5,-176 5826.5,-212"/>
<text text-anchor="middle" x="5541" y="-190.3" font-family="Times,serif" font-size="14.00">78d1f25f77309b8368189d40fd9adc43376841d57c7a6a1b8471854d7b3cfd02</text>
</g>
<!-- left551&#45;&gt;left631 -->
<g id="edge18" class="edge">
<title>left551&#45;&gt;left631</title>
<path fill="none" stroke="black" d="M5762.7,-247.97C5720.26,-237.83 5666.26,-224.93 5622.19,-214.4"/>
<polygon fill="black" stroke="black" points="5622.91,-210.97 5612.37,-212.05 5621.28,-217.78 5622.91,-210.97"/>
</g>
<!-- right631 -->
<g id="node22" class="node">
<title>right631</title>
<polygon fill="lime" stroke="blue" points="6409.5,-212 5844.5,-212 5844.5,-176 6409.5,-176 6409.5,-212"/>
<text text-anchor="middle" x="6127" y="-190.3" font-family="Times,serif" font-size="14.00">1ad10ec859f2825f04d054133125e8c931704f90bce6bcb3186aad41ea5ed3bf</text>
</g>
<!-- left551&#45;&gt;right631 -->
<g id="edge21" class="edge">
<title>left551&#45;&gt;right631</title>
<path fill="none" stroke="black" d="M5905.3,-247.97C5947.74,-237.83 6001.74,-224.93 6045.81,-214.4"/>
<polygon fill="black" stroke="black" points="6046.72,-217.78 6055.63,-212.05 6045.09,-210.97 6046.72,-217.78"/>
</g>
<!-- left596 -->
<g id="node20" class="node">
<title>left596</title>
<polygon fill="lime" stroke="blue" points="5245,-140 4679,-140 4679,-104 5245,-104 5245,-140"/>
<text text-anchor="middle" x="4962" y="-118.3" font-family="Times,serif" font-size="14.00">2e91dd6ca526ccc9e38297b5bd0b688e53a6a40efd2d7ffac1098181811d9bde</text>
</g>
<!-- left631&#45;&gt;left596 -->
<g id="edge19" class="edge">
<title>left631&#45;&gt;left596</title>
<path fill="none" stroke="black" d="M5400.1,-175.97C5313.16,-165.45 5201.68,-151.98 5112.93,-141.25"/>
<polygon fill="black" stroke="black" points="5113.13,-137.75 5102.78,-140.02 5112.28,-144.69 5113.13,-137.75"/>
</g>
<!-- right596 -->
<g id="node21" class="node">
<title>right596</title>
<polygon fill="lime" stroke="blue" points="5825,-140 5263,-140 5263,-104 5825,-104 5825,-140"/>
<text text-anchor="middle" x="5544" y="-118.3" font-family="Times,serif" font-size="14.00">a4cb3a9650bd4d4bfd86b4a8b99c02a8ddf0267cdfc6138f13cd403f2096a76a</text>
</g>
<!-- left631&#45;&gt;right596 -->
<g id="edge20" class="edge">
<title>left631&#45;&gt;right596</title>
<path fill="none" stroke="black" d="M5541.74,-175.7C5542.07,-167.98 5542.47,-158.71 5542.84,-150.11"/>
<polygon fill="black" stroke="black" points="5546.34,-150.25 5543.27,-140.1 5539.34,-149.95 5546.34,-150.25"/>
</g>
<!-- 76 -->
<g id="node40" class="node">
<title>76</title>
<polygon fill="yellow" stroke="red" points="5049,-68 4875,-68 4875,0 5049,0 5049,-68"/>
<text text-anchor="middle" x="4962" y="-52.8" font-family="Times,serif" font-size="14.00"> 02/11/2023 22:19:20 </text>
<text text-anchor="middle" x="4962" y="-37.8" font-family="Times,serif" font-size="14.00"> JKCTEPS9 </text>
<text text-anchor="middle" x="4962" y="-22.8" font-family="Times,serif" font-size="14.00"> 139 </text>
<text text-anchor="middle" x="4962" y="-7.8" font-family="Times,serif" font-size="14.00"> PY&#45;100</text>
</g>
<!-- left596&#45;&gt;76 -->
<g id="edge39" class="edge">
<title>left596&#45;&gt;76</title>
<path fill="none" stroke="black" d="M4962,-103.6C4962,-96.18 4962,-87.16 4962,-78.14"/>
<polygon fill="black" stroke="black" points="4965.5,-78.03 4962,-68.03 4958.5,-78.03 4965.5,-78.03"/>
</g>
<!-- 316 -->
<g id="node41" class="node">
<title>316</title>
<polygon fill="yellow" stroke="red" points="5631,-68 5457,-68 5457,0 5631,0 5631,-68"/>
<text text-anchor="middle" x="5544" y="-52.8" font-family="Times,serif" font-size="14.00"> 02/11/2023 22:19:20 </text>
<text text-anchor="middle" x="5544" y="-37.8" font-family="Times,serif" font-size="14.00"> DCXMVF7J </text>
<text text-anchor="middle" x="5544" y="-22.8" font-family="Times,serif" font-size="14.00"> 899 </text>
<text text-anchor="middle" x="5544" y="-7.8" font-family="Times,serif" font-size="14.00"> PY&#45;100</text>
</g>
<!-- right596&#45;&gt;316 -->
<g id="edge40" class="edge">
<title>right596&#45;&gt;316</title>
<path fill="none" stroke="black" d="M5544,-103.6C5544,-96.18 5544,-87.16 5544,-78.14"/>
<polygon fill="black" stroke="black" points="5547.5,-78.03 5544,-68.03 5540.5,-78.03 5547.5,-78.03"/>
</g>
<!-- left497 -->
<g id="node23" class="node">
<title>left497</title>
<polygon fill="lime" stroke="blue" points="6407,-140 5843,-140 5843,-104 6407,-104 6407,-140"/>
<text text-anchor="middle" x="6125" y="-118.3" font-family="Times,serif" font-size="14.00">c867b14fb8c1c42ff69ecb7254e1673ca33d6ae25b1400277fab099a4d89d028</text>
</g>
<!-- right631&#45;&gt;left497 -->
<g id="edge22" class="edge">
<title>right631&#45;&gt;left497</title>
<path fill="none" stroke="black" d="M6126.51,-175.7C6126.29,-167.98 6126.02,-158.71 6125.77,-150.11"/>
<polygon fill="black" stroke="black" points="6129.27,-150 6125.49,-140.1 6122.28,-150.2 6129.27,-150"/>
</g>
<!-- right497 -->
<g id="node24" class="node">
<title>right497</title>
<polygon fill="lime" stroke="blue" points="6986.5,-140 6425.5,-140 6425.5,-104 6986.5,-104 6986.5,-140"/>
<text text-anchor="middle" x="6706" y="-118.3" font-family="Times,serif" font-size="14.00">a36901a62e380ed668f9bae3498f6e093f07b00778a639749f7ab90bf1c25f3e</text>
</g>
<!-- right631&#45;&gt;right497 -->
<g id="edge23" class="edge">
<title>right631&#45;&gt;right497</title>
<path fill="none" stroke="black" d="M6267.9,-175.97C6354.84,-165.45 6466.32,-151.98 6555.07,-141.25"/>
<polygon fill="black" stroke="black" points="6555.72,-144.69 6565.22,-140.02 6554.87,-137.75 6555.72,-144.69"/>
</g>
<!-- 144 -->
<g id="node42" class="node">
<title>144</title>
<polygon fill="yellow" stroke="red" points="6212,-68 6038,-68 6038,0 6212,0 6212,-68"/>
<text text-anchor="middle" x="6125" y="-52.8" font-family="Times,serif" font-size="14.00"> 02/11/2023 22:19:20 </text>
<text text-anchor="middle" x="6125" y="-37.8" font-family="Times,serif" font-size="14.00"> DC5PNQHR </text>
<text text-anchor="middle" x="6125" y="-22.8" font-family="Times,serif" font-size="14.00"> 601 </text>
<text text-anchor="middle" x="6125" y="-7.8" font-family="Times,serif" font-size="14.00"> PY&#45;100</text>
</g>
<!-- left497&#45;&gt;144 -->
<g id="edge41" class="edge">
<title>left497&#45;&gt;144</title>
<path fill="none" stroke="black" d="M6125,-103.6C6125,-96.18 6125,-87.16 6125,-78.14"/>
<polygon fill="black" stroke="black" points="6128.5,-78.03 6125,-68.03 6121.5,-78.03 6128.5,-78.03"/>
</g>
<!-- 996 -->
<g id="node43" class="node">
<title>996</title>
<polygon fill="yellow" stroke="red" points="6793,-68 6619,-68 6619,0 6793,0 6793,-68"/>
<text text-anchor="middle" x="6706" y="-52.8" font-family="Times,serif" font-size="14.00"> 02/11/2023 22:19:20 </text>
<text text-anchor="middle" x="6706" y="-37.8" font-family="Times,serif" font-size="14.00"> JKLXT7NO </text>
<text text-anchor="middle" x="6706" y="-22.8" font-family="Times,serif" font-size="14.00"> 385 </text>
<text text-anchor="middle" x="6706" y="-7.8" font-family="Times,serif" font-size="14.00"> PY&#45;100</text>
</g>
<!-- right497&#45;&gt;996 -->
<g id="edge42" class="edge">
<title>right497&#45;&gt;996</title>
<path fill="none" stroke="black" d="M6706,-103.6C6706,-96.18 6706,-87.16 6706,-78.14"/>
<polygon fill="black" stroke="black" points="6709.5,-78.03 6706,-68.03 6702.5,-78.03 6709.5,-78.03"/>
</g>
<!-- left459 -->
<g id="node26" class="node">
<title>left459</title>
<polygon fill="lime" stroke="blue" points="7871,-212 7305,-212 7305,-176 7871,-176 7871,-212"/>
<text text-anchor="middle" x="7588" y="-190.3" font-family="Times,serif" font-size="14.00">c82529c8d9ad5f978bc1e2a792f58aaf8e939a65633879bd31f0b48aebd84311</text>
</g>
<!-- right551&#45;&gt;left459 -->
<g id="edge25" class="edge">
<title>right551&#45;&gt;left459</title>
<path fill="none" stroke="black" d="M7588,-247.7C7588,-239.98 7588,-230.71 7588,-222.11"/>
<polygon fill="black" stroke="black" points="7591.5,-222.1 7588,-212.1 7584.5,-222.1 7591.5,-222.1"/>
</g>
<!-- right459 -->
<g id="node29" class="node">
<title>right459</title>
<polygon fill="lime" stroke="blue" points="8749,-212 8185,-212 8185,-176 8749,-176 8749,-212"/>
<text text-anchor="middle" x="8467" y="-190.3" font-family="Times,serif" font-size="14.00">5a5d867cbe610771bf0f84198c466b330d6b16c475cdf7d1beb9d5f87a664fa7</text>
</g>
<!-- right551&#45;&gt;right459 -->
<g id="edge28" class="edge">
<title>right551&#45;&gt;right459</title>
<path fill="none" stroke="black" d="M7801.62,-247.99C7935.35,-237.34 8107.39,-223.64 8243.03,-212.84"/>
<polygon fill="black" stroke="black" points="8243.46,-216.31 8253.15,-212.03 8242.9,-209.34 8243.46,-216.31"/>
</g>
<!-- left935 -->
<g id="node27" class="node">
<title>left935</title>
<polygon fill="lime" stroke="blue" points="7581,-140 7005,-140 7005,-104 7581,-104 7581,-140"/>
<text text-anchor="middle" x="7293" y="-118.3" font-family="Times,serif" font-size="14.00">5f620205e61a6b8c6297d92a6018d62e6758ceb04b5a4823ee906db926b23f5b</text>
</g>
<!-- left459&#45;&gt;left935 -->
<g id="edge26" class="edge">
<title>left459&#45;&gt;left935</title>
<path fill="none" stroke="black" d="M7516.21,-175.97C7473.48,-165.83 7419.12,-152.93 7374.74,-142.4"/>
<polygon fill="black" stroke="black" points="7375.39,-138.95 7364.85,-140.05 7373.78,-145.76 7375.39,-138.95"/>
</g>
<!-- right935 -->
<g id="node28" class="node">
<title>right935</title>
<polygon fill="lime" stroke="blue" points="8167,-140 7599,-140 7599,-104 8167,-104 8167,-140"/>
<text text-anchor="middle" x="7883" y="-118.3" font-family="Times,serif" font-size="14.00">e89e1a530b804fe14254bedbfc7789d96142c2b4d0b0163fb774ac68396bf3e7</text>
</g>
<!-- left459&#45;&gt;right935 -->
<g id="edge27" class="edge">
<title>left459&#45;&gt;right935</title>
<path fill="none" stroke="black" d="M7659.79,-175.97C7702.52,-165.83 7756.88,-152.93 7801.26,-142.4"/>
<polygon fill="black" stroke="black" points="7802.22,-145.76 7811.15,-140.05 7800.61,-138.95 7802.22,-145.76"/>
</g>
<!-- 243 -->
<g id="node44" class="node">
<title>243</title>
<polygon fill="yellow" stroke="red" points="7380,-68 7206,-68 7206,0 7380,0 7380,-68"/>
<text text-anchor="middle" x="7293" y="-52.8" font-family="Times,serif" font-size="14.00"> 02/11/2023 22:19:20 </text>
<text text-anchor="middle" x="7293" y="-37.8" font-family="Times,serif" font-size="14.00"> JKMKG9J8 </text>
<text text-anchor="middle" x="7293" y="-22.8" font-family="Times,serif" font-size="14.00"> 780 </text>
<text text-anchor="middle" x="7293" y="-7.8" font-family="Times,serif" font-size="14.00"> PY&#45;100</text>
</g>
<!-- left935&#45;&gt;243 -->
<g id="edge43" class="edge">
<title>left935&#45;&gt;243</title>
<path fill="none" stroke="black" d="M7293,-103.6C7293,-96.18 7293,-87.16 7293,-78.14"/>
<polygon fill="black" stroke="black" points="7296.5,-78.03 7293,-68.03 7289.5,-78.03 7296.5,-78.03"/>
</g>
<!-- 893 -->
<g id="node45" class="node">
<title>893</title>
<polygon fill="yellow" stroke="red" points="7970,-68 7796,-68 7796,0 7970,0 7970,-68"/>
<text text-anchor="middle" x="7883" y="-52.8" font-family="Times,serif" font-size="14.00"> 02/11/2023 22:19:20 </text>
<text text-anchor="middle" x="7883" y="-37.8" font-family="Times,serif" font-size="14.00"> JKNYNWFF </text>
<text text-anchor="middle" x="7883" y="-22.8" font-family="Times,serif" font-size="14.00"> 591 </text>
<text text-anchor="middle" x="7883" y="-7.8" font-family="Times,serif" font-size="14.00"> PY&#45;100</text>
</g>
<!-- right935&#45;&gt;893 -->
<g id="edge44" class="edge">
<title>right935&#45;&gt;893</title>
<path fill="none" stroke="black" d="M7883,-103.6C7883,-96.18 7883,-87.16 7883,-78.14"/>
<polygon fill="black" stroke="black" points="7886.5,-78.03 7883,-68.03 7879.5,-78.03 7886.5,-78.03"/>
</g>
<!-- left911 -->
<g id="node30" class="node">
<title>left911</title>
<polygon fill="lime" stroke="blue" points="8748.5,-140 8185.5,-140 8185.5,-104 8748.5,-104 8748.5,-140"/>
<text text-anchor="middle" x="8467" y="-118.3" font-family="Times,serif" font-size="14.00">233d6702ac7af706e8a36fdbd7de685c0d1d9cbd4283f9fac23ece40237730c0</text>
</g>
<!-- right459&#45;&gt;left911 -->
<g id="edge29" class="edge">
<title>right459&#45;&gt;left911</title>
<path fill="none" stroke="black" d="M8467,-175.7C8467,-167.98 8467,-158.71 8467,-150.11"/>
<polygon fill="black" stroke="black" points="8470.5,-150.1 8467,-140.1 8463.5,-150.1 8470.5,-150.1"/>
</g>
<!-- right911 -->
<g id="node31" class="node">
<title>right911</title>
<polygon fill="lime" stroke="blue" points="9329.5,-140 8766.5,-140 8766.5,-104 9329.5,-104 9329.5,-140"/>
<text text-anchor="middle" x="9048" y="-118.3" font-family="Times,serif" font-size="14.00">233d6702ac7af706e8a36fdbd7de685c0d1d9cbd4283f9fac23ece40237730c0</text>
</g>
<!-- right459&#45;&gt;right911 -->
<g id="edge30" class="edge">
<title>right459&#45;&gt;right911</title>
<path fill="none" stroke="black" d="M8608.39,-175.97C8695.63,-165.45 8807.49,-151.98 8896.54,-141.25"/>
<polygon fill="black" stroke="black" points="8897.23,-144.69 8906.74,-140.02 8896.39,-137.74 8897.23,-144.69"/>
</g>
<!-- 644 -->
<g id="node46" class="node">
<title>644</title>
<polygon fill="yellow" stroke="red" points="8554,-68 8380,-68 8380,0 8554,0 8554,-68"/>
<text text-anchor="middle" x="8467" y="-52.8" font-family="Times,serif" font-size="14.00"> 02/11/2023 22:19:20 </text>
<text text-anchor="middle" x="8467" y="-37.8" font-family="Times,serif" font-size="14.00"> DCIEIUO6 </text>
<text text-anchor="middle" x="8467" y="-22.8" font-family="Times,serif" font-size="14.00"> 681 </text>
<text text-anchor="middle" x="8467" y="-7.8" font-family="Times,serif" font-size="14.00"> PY&#45;100</text>
</g>
<!-- left911&#45;&gt;644 -->
<g id="edge45" class="edge">
<title>left911&#45;&gt;644</title>
<path fill="none" stroke="black" d="M8467,-103.6C8467,-96.18 8467,-87.16 8467,-78.14"/>
<polygon fill="black" stroke="black" points="8470.5,-78.03 8467,-68.03 8463.5,-78.03 8470.5,-78.03"/>
</g>
</g>
</svg>
