<?xml version="1.0" encoding="UTF-8" standalone="no"?>
<!DOCTYPE svg PUBLIC "-//W3C//DTD SVG 1.1//EN"
 "http://www.w3.org/Graphics/SVG/1.1/DTD/svg11.dtd">
<!-- Generated by graphviz version 2.43.0 (0)
 -->
<!-- Title: BinaryTree Pages: 1 -->
<svg width="530pt" height="404pt"
 viewBox="0.00 0.00 530.39 404.00" xmlns="http://www.w3.org/2000/svg" xmlns:xlink="http://www.w3.org/1999/xlink">
<g id="graph0" class="graph" transform="scale(1 1) rotate(0) translate(4 400)">
<title>BinaryTree</title>
<polygon fill="white" stroke="transparent" points="-4,4 -4,-400 526.39,-400 526.39,4 -4,4"/>
<!-- T1&#45;PY&#45;100 -->
<g id="node1" class="node">
<title>T1&#45;PY&#45;100</title>
<ellipse fill="lime" stroke="blue" cx="57.19" cy="-378" rx="57.39" ry="18"/>
<text text-anchor="middle" x="57.19" y="-374.3" font-family="Times,serif" font-size="14.00">T1&#45;PY&#45;100</text>
</g>
<!-- T2&#45;PY&#45;100 -->
<g id="node2" class="node">
<title>T2&#45;PY&#45;100</title>
<ellipse fill="lime" stroke="blue" cx="129.19" cy="-18" rx="57.39" ry="18"/>
<text text-anchor="middle" x="129.19" y="-14.3" font-family="Times,serif" font-size="14.00">T2&#45;PY&#45;100</text>
</g>
<!-- T3&#45;PY&#45;100 -->
<g id="node3" class="node">
<title>T3&#45;PY&#45;100</title>
<ellipse fill="lime" stroke="blue" cx="333.19" cy="-378" rx="57.39" ry="18"/>
<text text-anchor="middle" x="333.19" y="-374.3" font-family="Times,serif" font-size="14.00">T3&#45;PY&#45;100</text>
</g>
<!-- T4&#45;PY&#45;100 -->
<g id="node4" class="node">
<title>T4&#45;PY&#45;100</title>
<ellipse fill="lime" stroke="blue" cx="129.19" cy="-90" rx="57.39" ry="18"/>
<text text-anchor="middle" x="129.19" y="-86.3" font-family="Times,serif" font-size="14.00">T4&#45;PY&#45;100</text>
</g>
<!-- T4&#45;PY&#45;100&#45;&gt;T2&#45;PY&#45;100 -->
<g id="edge1" class="edge">
<title>T4&#45;PY&#45;100&#45;&gt;T2&#45;PY&#45;100</title>
<path fill="none" stroke="black" d="M129.19,-71.7C129.19,-63.98 129.19,-54.71 129.19,-46.11"/>
<polygon fill="black" stroke="black" points="132.7,-46.1 129.19,-36.1 125.7,-46.1 132.7,-46.1"/>
</g>
<!-- T5&#45;PY&#45;100 -->
<g id="node5" class="node">
<title>T5&#45;PY&#45;100</title>
<ellipse fill="lime" stroke="blue" cx="129.19" cy="-162" rx="57.39" ry="18"/>
<text text-anchor="middle" x="129.19" y="-158.3" font-family="Times,serif" font-size="14.00">T5&#45;PY&#45;100</text>
</g>
<!-- T5&#45;PY&#45;100&#45;&gt;T4&#45;PY&#45;100 -->
<g id="edge2" class="edge">
<title>T5&#45;PY&#45;100&#45;&gt;T4&#45;PY&#45;100</title>
<path fill="none" stroke="black" d="M129.19,-143.7C129.19,-135.98 129.19,-126.71 129.19,-118.11"/>
<polygon fill="black" stroke="black" points="132.7,-118.1 129.19,-108.1 125.7,-118.1 132.7,-118.1"/>
</g>
<!-- T6&#45;PY&#45;100 -->
<g id="node6" class="node">
<title>T6&#45;PY&#45;100</title>
<ellipse fill="lime" stroke="blue" cx="465.19" cy="-378" rx="57.39" ry="18"/>
<text text-anchor="middle" x="465.19" y="-374.3" font-family="Times,serif" font-size="14.00">T6&#45;PY&#45;100</text>
</g>
<!-- T7&#45;PY&#45;100 -->
<g id="node7" class="node">
<title>T7&#45;PY&#45;100</title>
<ellipse fill="lime" stroke="blue" cx="261.19" cy="-162" rx="57.39" ry="18"/>
<text text-anchor="middle" x="261.19" y="-158.3" font-family="Times,serif" font-size="14.00">T7&#45;PY&#45;100</text>
</g>
<!-- T8&#45;PY&#45;100 -->
<g id="node8" class="node">
<title>T8&#45;PY&#45;100</title>
<ellipse fill="lime" stroke="blue" cx="195.19" cy="-234" rx="57.39" ry="18"/>
<text text-anchor="middle" x="195.19" y="-230.3" font-family="Times,serif" font-size="14.00">T8&#45;PY&#45;100</text>
</g>
<!-- T8&#45;PY&#45;100&#45;&gt;T5&#45;PY&#45;100 -->
<g id="edge3" class="edge">
<title>T8&#45;PY&#45;100&#45;&gt;T5&#45;PY&#45;100</title>
<path fill="none" stroke="black" d="M179.55,-216.41C171.25,-207.61 160.9,-196.63 151.75,-186.92"/>
<polygon fill="black" stroke="black" points="154.13,-184.34 144.72,-179.47 149.04,-189.15 154.13,-184.34"/>
</g>
<!-- T8&#45;PY&#45;100&#45;&gt;T7&#45;PY&#45;100 -->
<g id="edge4" class="edge">
<title>T8&#45;PY&#45;100&#45;&gt;T7&#45;PY&#45;100</title>
<path fill="none" stroke="black" d="M210.84,-216.41C219.14,-207.61 229.49,-196.63 238.64,-186.92"/>
<polygon fill="black" stroke="black" points="241.35,-189.15 245.67,-179.47 236.26,-184.34 241.35,-189.15"/>
</g>
<!-- T9&#45;PY&#45;100 -->
<g id="node9" class="node">
<title>T9&#45;PY&#45;100</title>
<ellipse fill="lime" stroke="blue" cx="195.19" cy="-306" rx="57.39" ry="18"/>
<text text-anchor="middle" x="195.19" y="-302.3" font-family="Times,serif" font-size="14.00">T9&#45;PY&#45;100</text>
</g>
<!-- T9&#45;PY&#45;100&#45;&gt;T8&#45;PY&#45;100 -->
<g id="edge5" class="edge">
<title>T9&#45;PY&#45;100&#45;&gt;T8&#45;PY&#45;100</title>
<path fill="none" stroke="black" d="M195.19,-287.7C195.19,-279.98 195.19,-270.71 195.19,-262.11"/>
<polygon fill="black" stroke="black" points="198.7,-262.1 195.19,-252.1 191.7,-262.1 198.7,-262.1"/>
</g>
<!-- T10&#45;PY&#45;100 -->
<g id="node10" class="node">
<title>T10&#45;PY&#45;100</title>
<ellipse fill="lime" stroke="blue" cx="195.19" cy="-378" rx="63.09" ry="18"/>
<text text-anchor="middle" x="195.19" y="-374.3" font-family="Times,serif" font-size="14.00">T10&#45;PY&#45;100</text>
</g>
<!-- T10&#45;PY&#45;100&#45;&gt;T9&#45;PY&#45;100 -->
<g id="edge6" class="edge">
<title>T10&#45;PY&#45;100&#45;&gt;T9&#45;PY&#45;100</title>
<path fill="none" stroke="black" d="M195.19,-359.7C195.19,-351.98 195.19,-342.71 195.19,-334.11"/>
<polygon fill="black" stroke="black" points="198.7,-334.1 195.19,-324.1 191.7,-334.1 198.7,-334.1"/>
</g>
</g>
</svg>
